<svg width="48" height="40" viewBox="0 0 48 40" fill="none" xmlns="http://www.w3.org/2000/svg">
<path d="M35.7818 7.0529V5.03779C35.7818 2.21663 32.9455 0 29.4545 0H18.5455C15.0545 0 12.2182 2.31738 12.2182 5.03779V7.0529H5.45455C2.50909 7.0529 0 9.26953 0 12.0907V34.9622C0 37.6826 2.4 40 5.45455 40H42.5455C45.4909 40 48 37.7834 48 34.9622V12.0907C48 9.37028 45.6 7.0529 42.5455 7.0529H35.7818ZM45.7091 34.9622C45.7091 36.5743 44.2909 37.8841 42.5455 37.8841H5.45455C3.70909 37.8841 2.29092 36.5743 2.29092 34.9622V12.0907C2.29092 10.4786 3.70909 9.16875 5.45455 9.16875H42.5455C44.2909 9.16875 45.7091 10.4786 45.7091 12.0907V34.9622ZM18.5455 2.01511H29.4545C31.7455 2.01511 33.4909 3.32494 33.4909 5.03779V7.0529H30.2182V6.14607C30.2182 4.53398 28.5818 3.1234 26.6182 3.1234H21.2727C19.3091 3.1234 17.6727 4.43323 17.6727 6.14607V7.0529H14.4V5.03779C14.4 3.32494 16.2545 2.01511 18.5455 2.01511ZM28.0364 7.0529H19.8546V6.14607C19.8546 5.6423 20.5091 5.23928 21.2727 5.23928H26.6182C27.3818 5.23928 28.0364 5.6423 28.0364 6.14607V7.0529Z" fill="#EADAC5"/>
<path d="M32.8364 20.2518H27.9273V15.7178C27.9273 15.4155 27.6 15.1133 27.2727 15.1133H21.6C21.2728 15.1133 20.9455 15.4155 20.9455 15.7178V20.2518H16.0364C15.7091 20.2518 15.3818 20.5541 15.3818 20.8563V26.0956C15.3818 26.3979 15.7091 26.7002 16.0364 26.7002H20.9455V31.2342C20.9455 31.5365 21.2728 31.8387 21.6 31.8387H27.2727C27.6 31.8387 27.9273 31.5365 27.9273 31.2342V26.7002H32.8364C33.1637 26.7002 33.4909 26.3979 33.4909 26.0956V20.8563C33.4909 20.5541 33.2727 20.2518 32.8364 20.2518ZM32.1818 25.4911H27.2727C26.9455 25.4911 26.6182 25.7934 26.6182 26.0956V30.6297H22.2545V26.0956C22.2545 25.7934 21.9273 25.4911 21.6 25.4911H16.6909V21.4609H21.6C21.9273 21.4609 22.2545 21.1586 22.2545 20.8563V16.3223H26.6182V20.8563C26.6182 21.1586 26.9455 21.4609 27.2727 21.4609H32.1818V25.4911Z" fill="#EADAC5"/>
</svg>
