<svg width="22" height="22" viewBox="0 0 22 22" fill="none" xmlns="http://www.w3.org/2000/svg">
<path d="M5.37454 1C3.99954 1 1.99954 2.5 1.49954 3.5C0.784937 4.92921 0.902879 5.49068 1.37454 7C1.99954 9 3.83198 12.5451 6.37454 15C9.99954 18.5 13.3745 20 14.8745 20.5C16.3745 21 17.9995 20.5 18.9995 19.5C19.9995 18.5 20.9995 17.5 19.8745 16C19.0773 14.9371 17.916 13.7082 16.4995 13C15.2116 12.356 14.444 12.5904 13.9995 13.5C13.7539 14.0028 13.6775 14.966 13.4995 15.5C13.275 16.1737 12.3745 16 11.3745 15.5C10.4172 15.0213 7.99954 13 5.99954 10C4.76041 8.1413 6.74105 8.12925 7.99954 7.5C8.99954 7 9.30953 5.84998 8.49954 4.5C6.99954 2 6.49954 1 5.37454 1Z" fill="black" stroke="#39513F" stroke-width="2"/>
</svg>
