<svg width="22" height="23" viewBox="0 0 22 23" fill="none" xmlns="http://www.w3.org/2000/svg">
<path d="M5.37454 1.5C3.99954 1.5 1.99954 3 1.49954 4C0.784937 5.42921 0.902879 5.99068 1.37454 7.5C1.99954 9.5 3.83198 13.0451 6.37454 15.5C9.99954 19 13.3745 20.5 14.8745 21C16.3745 21.5 17.9995 21 18.9995 20C19.9995 19 20.9995 18 19.8745 16.5C19.0773 15.4371 17.916 14.2082 16.4995 13.5C15.2116 12.856 14.444 13.0904 13.9995 14C13.7539 14.5028 13.6775 15.466 13.4995 16C13.275 16.6737 12.3745 16.5 11.3745 16C10.4172 15.5213 7.99954 13.5 5.99954 10.5C4.76041 8.6413 6.74105 8.62925 7.99954 8C8.99954 7.5 9.30953 6.34998 8.49954 5C6.99954 2.5 6.49954 1.5 5.37454 1.5Z" stroke="white" stroke-width="2"/>
</svg>
