<svg width="48" height="40" viewBox="0 0 48 40" fill="none" xmlns="http://www.w3.org/2000/svg">
<path d="M22.9338 18.6751L17.3871 24.7319L7.25375 13.6278H7.14708C6.93375 13.3754 6.72042 13.123 6.50708 12.8707C5.97375 12.2397 5.65375 11.6088 5.44042 10.8517C5.22708 10.2208 5.12042 9.46372 5.12042 8.70663C5.12042 6.94006 5.76042 5.29968 6.82708 4.16404C7.89375 2.90221 9.38708 2.27129 10.9871 2.27129C13.3338 2.27129 15.3604 3.78549 16.3204 6.05678C16.5338 6.56151 16.9604 6.81388 17.3871 6.81388C17.8138 6.81388 18.2404 6.56151 18.4538 6.05678C19.4138 3.78549 21.5471 2.27129 23.7871 2.27129C25.3871 2.27129 26.8804 2.90221 27.9471 4.16404C29.0138 5.42587 29.6538 6.94006 29.6538 8.70663C30.4004 8.95899 31.0404 9.33754 31.5738 9.84227C31.5738 9.46372 31.6804 9.08517 31.6804 8.70663C31.6804 3.91167 28.1604 0 23.7871 0C21.1204 0 18.7738 1.38801 17.3871 3.65931C15.8938 1.5142 13.6538 0 10.9871 0C6.61375 0 3.09375 3.91167 3.09375 8.70663C3.09375 9.71609 3.20042 10.7256 3.52042 11.6088C3.84042 12.6183 4.37375 13.6278 5.01375 14.3849C5.22708 14.7634 5.54708 15.0158 5.86708 15.2681L16.4271 26.877C16.6404 27.1293 16.9604 27.2555 17.2804 27.2555C17.6004 27.2555 17.9204 27.1293 18.1338 26.877L24.4271 20.0631C23.7871 19.6845 23.3604 19.1798 22.9338 18.6751Z" fill="#EADAC5"/>
<path d="M47.68 19.4322C47.4667 19.1798 47.2533 18.9274 46.9333 18.9274C44.48 18.9274 42.88 17.4132 40.96 15.6467C40.5333 15.2681 40.1067 14.8896 39.68 14.511C37.8667 12.9968 35.7333 11.3564 32.4267 11.3564C31.04 11.3564 29.9733 11.3564 29.12 11.3564H22.4C20.9067 11.3564 19.6267 12.8706 19.6267 14.7634C19.6267 16.6561 20.9067 18.1703 22.4 18.1703H28.6933C29.5467 18.4227 30.08 19.306 30.08 20.3154C30.08 21.0725 29.76 21.8296 29.2267 22.2082L26.88 23.0915C26.1333 23.3438 25.28 23.5962 24.5333 23.8486H24.32C20.0533 25.2366 18.56 25.7413 18.1333 25.8675C17.92 25.8675 17.8133 25.8675 17.7067 25.8675L7.89333 17.918L6.08 16.2776C6.08 16.2776 5.97333 16.2776 5.97333 16.1514C5.86667 16.0252 5.76 16.0252 5.65333 15.899C5.44 15.7728 5.22667 15.6467 5.01333 15.6467C4.90667 15.6467 4.69333 15.5205 4.48 15.5205C4.16 15.5205 3.84 15.5205 3.41333 15.6467C1.38667 15.899 0 17.918 0 20.4416C0 21.7034 0.426667 22.8391 1.06667 23.7224C1.28 24.1009 1.6 24.3533 1.92 24.4795L18.24 39.3691C18.3467 39.4952 18.4533 39.4952 18.56 39.4952L18.7733 39.6214C19.3067 39.8738 19.7333 40 20.2667 40C20.5867 40 20.8 40 21.12 39.8738C21.12 39.8738 21.12 39.8738 21.2267 39.8738H21.3333C27.2 37.981 37.6533 34.5741 42.6667 33.0599H42.7733L43.0933 32.9337C44.8 32.429 46.1867 32.0504 47.04 32.0504C47.5733 32.0504 48 31.5457 48 30.9148V30.1577C48 30.0315 48 30.0315 48 29.9053V20.3154C47.8933 20.0631 47.7867 19.6845 47.68 19.4322ZM45.8667 29.7792C44.9067 29.9053 43.7333 30.1577 42.3467 30.6624H42.24L41.92 30.7886C36.9067 32.3028 26.4533 35.7098 20.5867 37.6025C20.16 37.7287 19.84 37.6025 19.4133 37.4763H19.3067L3.09333 22.7129L2.98667 22.5867C2.88 22.4605 2.66667 22.3344 2.56 22.2082C2.13333 21.7034 1.92 21.0725 1.92 20.4416C1.92 19.1798 2.66667 18.0441 3.62667 18.0441H3.73333C3.94667 18.0441 4.16 18.0441 4.26667 18.0441C4.37333 18.0441 4.37333 18.0441 4.48 18.0441C4.58667 18.0441 4.69333 18.1703 4.69333 18.1703C4.8 18.1703 4.8 18.2965 4.90667 18.2965L6.61333 19.9369L16.64 28.1388C16.7467 28.265 16.8533 28.265 16.96 28.265C17.28 28.3911 17.7067 28.3911 18.24 28.3911C18.3467 28.3911 18.3467 28.3911 18.4533 28.3911C18.88 28.265 21.0133 27.5079 24.8533 26.246H25.0667C25.92 25.9937 26.6667 25.7413 27.4133 25.4889L29.8667 24.6057C29.9733 24.6057 29.9733 24.4795 30.08 24.4795C31.2533 23.7224 32 22.2082 32 20.5678C32 18.2965 30.72 16.4038 28.9067 16.0252C28.8 16.0252 28.8 16.0252 28.6933 16.0252H22.4C21.9733 16.0252 21.5467 15.5205 21.5467 14.8896C21.5467 14.2587 21.8667 13.7539 22.4 13.7539H29.2267C30.08 13.7539 31.1467 13.7539 32.5333 13.7539C35.2 13.7539 37.0133 15.0158 38.6133 16.4038C39.04 16.7823 39.4667 17.1609 39.7867 17.5394C41.6 19.1798 43.4133 20.9463 45.9733 21.3249V28.7697L45.8667 29.7792Z" fill="#EADAC5"/>
</svg>
