<svg width="48" height="40" viewBox="0 0 48 40" fill="none" xmlns="http://www.w3.org/2000/svg">
<g clip-path="url(#clip0_8055_9)">
<path d="M30.7201 4.7001C30.5281 4.7001 30.3361 4.7001 30.2401 4.6001C28.9921 4.1001 26.7841 3.7001 24.1921 5.8001L24.0961 5.9001L23.2321 6.8001C20.0641 4.5001 17.4721 5.9001 16.7041 6.4001L13.5361 3.1001L3.45605 13.6001L7.29605 17.6001C7.29605 19.4001 7.96805 21.2001 9.12005 23.1001C9.60005 23.9001 10.1761 24.6001 10.7521 25.2001C11.5201 26.0001 12.3841 26.9001 13.1521 27.7001C12.2881 29.0001 12.6721 30.1001 13.5361 31.1001C14.4961 32.1001 15.3601 32.2001 16.6081 31.8001C17.4721 33.2001 18.3361 33.9001 19.2961 34.0001C19.6801 34.4001 20.0641 34.8001 20.4481 35.1001C21.6001 36.2001 23.2321 36.5001 24.5761 35.7001C25.1521 35.4001 25.2481 35.1001 25.5361 34.6001C27.8401 36.6001 29.2801 36.6001 31.1041 33.8001C32.3521 34.2001 33.2161 34.1001 34.1761 33.1001C35.1361 32.1001 35.5201 30.9001 34.4641 29.5001L34.1761 29.1001C34.9441 29.1001 35.5201 28.6001 35.9041 28.2001C36.7681 27.0001 36.7681 25.8001 35.8081 24.5001C36.1921 24.1001 36.6721 23.6001 37.0561 23.2001C37.6321 22.5001 38.2081 21.8001 38.6881 21.1001C39.8401 19.2001 40.5121 17.4001 40.5121 15.6001L44.3521 11.6001L34.1761 1.1001L30.7201 4.7001ZM11.3281 23.7001C10.1761 22.4001 9.31205 21.0001 8.92805 19.4001C8.83205 19.0001 8.73605 18.7001 8.73605 18.3001C8.73605 18.0001 8.73605 17.7001 8.73605 17.4001L4.89605 13.4001L13.2481 4.7001L15.9361 7.5001L16.1281 7.7001L17.3761 7.8001L17.4721 7.6001C17.9521 7.2001 20.0641 6.0001 22.9441 8.3001L26.6881 12.2001C26.8801 12.4001 26.9761 12.7001 26.9761 12.9001C26.9761 13.2001 26.8801 13.4001 26.6881 13.6001L26.4001 13.9001C26.0161 14.3001 25.3441 14.3001 24.9601 13.9001L21.1201 9.9001L20.1601 10.6001L21.2161 11.9001L21.6961 12.4001C21.2161 12.9001 20.8321 13.3001 20.3521 13.8001C20.2561 13.9001 20.1601 14.0001 20.1601 14.2001C20.1601 14.2001 20.1601 14.2001 20.0641 14.3001C17.4721 17.0001 14.8801 19.7001 12.3841 22.3001C11.9041 22.6001 11.5201 23.1001 11.3281 23.7001ZM23.8081 34.5001C23.5201 34.8001 23.2321 35.0001 22.7521 34.9001C22.1761 34.9001 21.6961 34.4001 21.4081 34.1001C21.2161 33.9001 21.0241 33.7001 20.8321 33.5001C21.2161 33.3001 21.6961 32.9001 22.1761 32.5001C22.4641 33.0001 22.5601 33.3001 23.1361 33.6001C23.4241 33.8001 23.7121 33.9001 23.9041 33.9001C23.9041 34.2001 23.9041 34.4001 23.8081 34.5001ZM29.2801 34.0001C28.7041 34.7001 28.0321 34.8001 27.1681 34.0001C27.0721 33.9001 26.8801 33.7001 26.7841 33.6001C26.9761 33.5001 27.1681 33.3001 27.2641 33.2001C27.7441 32.7001 28.2241 32.2001 28.7041 31.7001C28.8001 31.8001 28.8001 31.8001 28.8961 31.9001C29.6641 32.7001 29.8561 33.3001 29.2801 34.0001ZM33.3121 31.8001C32.7361 32.6001 31.8721 32.6001 31.0081 31.8001C30.6241 31.4001 30.2401 31.0001 29.8561 30.6001C30.5281 29.9001 31.2001 29.3001 31.7761 28.6001C32.1601 29.0001 32.5441 29.4001 32.8321 29.7001C33.6001 30.5001 33.6961 31.2001 33.3121 31.8001ZM34.8481 26.9001C34.5601 27.7001 33.6961 28.0001 33.0241 27.6001C32.9281 27.6001 32.9281 27.5001 32.8321 27.5001C33.5041 26.9001 34.0801 26.2001 34.6561 25.6001C34.9441 26.0001 35.1361 26.4001 34.8481 26.9001ZM42.8161 11.3001L38.9761 15.3001C38.9761 15.6001 38.9761 15.9001 38.9761 16.2001C38.9761 16.6001 38.8801 16.9001 38.7841 17.3001C38.4001 18.9001 37.5361 20.3001 36.3841 21.6001C34.7521 23.3001 33.1201 25.0001 31.4881 26.7001C29.7601 28.5001 28.0321 30.3001 26.4001 32.0001C26.1121 32.3001 25.7281 32.8001 25.0561 32.8001C24.5761 32.8001 24.2881 32.7001 24.0001 32.4001C23.7121 32.1001 23.6161 31.5001 23.7121 31.1001C23.8081 30.7001 24.1921 30.2001 24.5761 29.9001C25.3441 29.1001 26.1121 28.3001 26.9761 27.4001C27.3601 27.0001 27.7441 26.6001 28.1281 26.2001C28.5121 25.8001 29.6641 24.9001 29.0881 24.2001C28.5121 23.6001 27.6481 24.7001 27.2641 25.1001C26.8801 25.5001 26.4961 25.9001 26.1121 26.3001C24.2881 28.1001 22.5601 30.0001 20.6401 31.8001C19.7761 32.6001 19.1041 32.5001 18.5281 31.8001C17.9521 31.1001 18.0481 30.5001 18.9121 29.6001C20.9281 27.5001 23.0401 25.3001 25.0561 23.2001C25.3441 22.9001 25.6321 22.7001 25.6321 22.2001C25.6321 21.9001 25.5361 21.6001 25.2481 21.5001C24.6721 21.4001 24.4801 21.6001 24.0961 22.0001C21.6961 24.5001 19.2961 27.0001 16.8961 29.5001C16.1281 30.3001 15.2641 30.3001 14.5921 29.5001C14.1121 28.9001 14.3041 28.2001 14.9761 27.5001C17.3761 24.9001 19.8721 22.4001 22.3681 19.8001C22.7521 19.4001 23.0401 18.9001 22.5601 18.4001C22.0801 17.9001 21.6961 18.3001 21.3121 18.7001C19.3921 20.7001 17.5681 22.6001 15.6481 24.6001C15.3601 24.9001 15.1681 25.1001 14.7841 25.3001C14.1121 25.7001 13.2481 25.3001 12.9601 24.6001C12.6721 23.8001 13.0561 23.3001 13.5361 22.8001C16.7041 19.5001 19.7761 16.3001 22.9441 13.0001L24.1921 14.3001C24.6721 14.8001 25.2481 15.0001 25.8241 15.0001C26.4001 15.0001 26.9761 14.8001 27.3601 14.3001L27.6481 14.0001C28.0321 13.6001 28.3201 13.0001 28.3201 12.4001C28.3201 11.8001 28.1281 11.3001 27.7441 10.8001L24.8641 7.8001L24.2881 7.2001L24.9601 6.9001C26.1121 6.0001 27.1681 5.6001 28.0321 5.6001C29.6641 5.5001 31.0081 6.3001 31.0081 6.3001L31.8721 5.4001L34.5601 2.6001L42.8161 11.3001Z" fill="#EADAC5"/>
</g>
<defs>
<clipPath id="clip0_8055_9">
<rect width="48" height="40" fill="white"/>
</clipPath>
</defs>
</svg>
